#N canvas 0 23 1440 878 16;
#X obj 135 415 dac~;
#X obj 137 376 *~;
#X obj 457 -34 bng 15 250 50 0 empty empty empty 17 7 0 10 -262144
-1 -1;
#X obj 673 111 delay;
#X obj 744 80 +;
#X obj 450 133 line;
#X msg 449 105 \$1 \$2 \, \$3 \$4 \, \$5 \$6;
#X obj 452 74 pack f f f f f f;
#X obj 458 -16 t b b b b b b b b;
#X obj 674 141 s bang;
#X obj 455 -60 r bang;
#X obj 663 82 t b f;
#X obj 449 221 clip~ -0.6 0.6;
#X msg 635 25 8;
#X obj 451 193 osc~;
#X msg 503 27 0;
#X obj 88 148 osc~;
#X msg 579 27 8964;
#X msg 678 26 89640;
#N canvas 0 22 450 300 snap~ 0;
#X obj 175 55 inlet~;
#X obj 187 225 outlet;
#X obj 182 182 snapshot~;
#X obj 277 93 metro 1;
#X obj 277 73 tgl 15 0 empty empty empty 17 7 0 10 -262144 -1 -1 1
1;
#X obj 270 36 loadbang;
#X connect 0 0 2 0;
#X connect 2 0 1 0;
#X connect 3 0 2 0;
#X connect 4 0 3 0;
#X connect 5 0 4 0;
#X restore 249 382 pd snap~;
#X msg 468 28 32;
#X msg 539 26 64;
#X obj 248 421 expr if($F1>1 \, 1 \, 0);
#X obj 249 450 tgl 50 0 empty empty empty 17 7 0 10 -262144 -1 -1 0
1;
#X obj 86 93 osc~;
#X obj 249 508 s lower;
#X text 70 -209 SOUND OF PITCH 64;
#X text 71 -237 LIVE CODING SINCE GMT+8 AM6:04 TO GMT+8 PM6:04;
#X obj 332 496 s bang_2;
#X obj 640 -96 f 0;
#X obj 701 -103 + 1;
#X obj 1002 -45 osc~;
#X obj 77 -37 s~ phasor;
#X obj 83 25 r~ phasor;
#X obj 803 388 r~ phasor;
#X obj 999 -136 r~ phasor;
#X obj 81 201 s~ mV1;
#X obj 29 253 r~ mV1;
#X obj 159 253 r~ mV2;
#X obj 488 362 s~ mV2;
#X obj 274 251 r~ mV3;
#X obj 1000 17 s~ mV3;
#X text 994 -165 Lead;
#X text 81 -2 Kick;
#X text 131 217 Mixer;
#X text 68 413 OutPut;
#X text 342 380 Limiter;
#X obj 1086 -43 line;
#X floatatom 754 119 5 0 0 0 - - -;
#X obj 1000 -12 hip~;
#X obj 170 146 r choise;
#X obj 1052 484 s choise;
#X obj 1171 356 tgl 15 0 empty empty empty 17 7 0 10 -262144 -1 -1
0 1;
#X obj 1050 384 route 0;
#X msg 172 170 \$1 64;
#X msg 1052 433 0.5;
#X obj 173 194 line~;
#X obj 1158 336 cnv 15 100 60 empty choise live 20 12 0 64 -262144
-66577 0;
#X floatatom 247 178 5 0 0 0 - - -;
#X msg 1165 435 \; choise label live \;;
#X msg 1170 484 \; choise label die \;;
#X msg 1108 433 0.1;
#X msg 246 341 0;
#X text 1167 270 to choise? or not to be?;
#X obj 83 178 *~;
#X obj 1168 413 bng 15 250 50 0 empty empty empty 17 7 0 10 -262144
-1 -1;
#X obj 1151 481 bng 15 250 50 0 empty empty empty 17 7 0 10 -262144
-1 -1;
#X obj 1049 289 tgl 15 0 empty empty empty 17 7 0 10 -262144 -1 -1
1 1;
#X obj 1000 -90 expr~ abs(sin($V1*.5)*64000%6399);
#X obj 377 214 *;
#X obj 373 131 t b;
#X msg 376 163 108;
#X obj 332 470 expr abs($F1*6400);
#X obj 451 161 * 1.7;
#X obj 874 -96 r choise;
#X obj 1024 161 expr~ abs($V1*64);
#X obj 1025 238 clip~ -0.6 0.6;
#X obj 1024 209 osc~ 64;
#X obj 587 301 r choise;
#X obj 487 337 min~ 0.6;
#X text 77 -177 Heart_Rythm;
#X text 587 439;
#X obj 818 119 s total;
#X obj 77 -144 r total;
#X obj 76 -65 phasor~ 0.15;
#X obj 829 79 *;
#X obj 823 -9 r choise;
#X obj 588 330 expr abs($F1-.5);
#X obj 814 226 osc~;
#X obj 689 221 osc~;
#X obj 485 255 expr~ (pow(6 \, $V1))*.7+($V4*.2) + $V2*.6- $V3*$V4*.8
;
#X obj 513 170 expr~ cos(abs($V1))/(pow(2 \, 64/$V1)+1);
#X obj 636 -132 r bang_2;
#X text 454 -122 ?_line;
#X obj 636 -63 expr log(abs(atan($F1*$F2)))*432/$F2;
#X floatatom 839 -240 5 0 0 0 - - -;
#X floatatom 840 -212 5 0 0 0 - - -;
#X floatatom 841 -186 5 0 0 0 - - -;
#X obj 716 -210 tgl 15 0 empty empty empty 17 7 0 10 -262144 -1 -1
1 1;
#X floatatom 843 -157 5 0 0 0 - - -;
#X obj 765 -165 time;
#X obj 716 -191 metro 100;
#X text 714 -241 GMT+8 Clock;
#X obj 799 -104 /;
#X obj 800 -131 t b f;
#X obj 384 245 osc~ 432;
#X obj 926 158 phasor~;
#X obj 939 196 *~ 64;
#X obj 191 29 expr if($F1>30 \, $F1 \, 20000);
#X obj 83 59 expr~ abs(sin($V1)+0.00001)*log(abs(sin($V2)+0.1)*$V2*0.01)
;
#X obj 87 120 expr~ log(abs($V1*1.01))*$V2*0.001+0.1;
#X obj 732 387 noise~;
#X obj 591 389 phasor~ 0.2;
#X obj 592 485 s~ mV5;
#X obj 420 321 r~ mV5;
#X obj 593 450 clip~ -0.6 0.6;
#X obj 592 417 expr~ log($V1+0.001)*$V2*abs((0.5-$V3)/$V1);
#X obj 77 -92 expr $F1/2;
#X obj 261 -108 osc~;
#X obj 319 -111 osc~;
#X obj 262 -18 s~ mV6;
#X obj 532 297 r~ mV6;
#X floatatom 668 -33 5 0 0 0 - - -;
#X obj 599 -172 r~ -phasor;
#X obj 265 -110 expr~ ($V1+$V2)*(abs(sin($V3)+.1)*432)*abs(0.5-$V4)
;
#X obj 974 349 s rand;
#X obj 524 -201 r rand;
#X obj 350 -142 expr~ pow(2 \, $V1/12)*432/7/$V2;
#X obj 260 -169 expr~ pow(2 \, $V1/12)*432/7.1/$V2;
#X obj 77 -119 t b f;
#X obj 261 -50 phasor~;
#X obj 827 38 t b f;
#X msg 308 339 0.8;
#X obj 23 283 expr~ $V1*$V2+$V2*.2+$V3/32*$V1+($V1*$V4)*9.5 + $V1*$V5*.02-$V6*.1
;
#X obj 1044 324 metro 100;
#X obj 1050 356 random 100;
#X obj 1030 -204 route 4;
#X obj 310 311;
#X connect 1 0 0 0;
#X connect 1 0 0 1;
#X connect 1 0 19 0;
#X connect 2 0 8 0;
#X connect 3 0 9 0;
#X connect 4 0 3 1;
#X connect 4 0 48 0;
#X connect 4 0 85 0;
#X connect 5 0 73 0;
#X connect 5 0 91 0;
#X connect 6 0 5 0;
#X connect 7 0 6 0;
#X connect 8 0 7 0;
#X connect 8 1 20 0;
#X connect 8 2 15 0;
#X connect 8 3 21 0;
#X connect 8 4 17 0;
#X connect 8 5 13 0;
#X connect 8 6 18 0;
#X connect 10 0 2 0;
#X connect 11 0 3 0;
#X connect 11 1 4 0;
#X connect 12 0 90 0;
#X connect 13 0 7 4;
#X connect 14 0 12 0;
#X connect 15 0 7 1;
#X connect 16 0 64 0;
#X connect 17 0 7 3;
#X connect 17 0 11 0;
#X connect 17 0 103 0;
#X connect 18 0 7 5;
#X connect 18 0 4 1;
#X connect 18 0 47 1;
#X connect 19 0 22 0;
#X connect 19 0 72 0;
#X connect 20 0 7 0;
#X connect 21 0 7 2;
#X connect 22 0 23 0;
#X connect 23 0 25 0;
#X connect 24 0 110 0;
#X connect 29 0 30 0;
#X connect 29 0 94 0;
#X connect 29 0 124 2;
#X connect 30 0 29 1;
#X connect 31 0 49 0;
#X connect 33 0 109 0;
#X connect 34 0 116 2;
#X connect 35 0 68 0;
#X connect 37 0 133 0;
#X connect 38 0 133 1;
#X connect 40 0 133 2;
#X connect 47 0 49 1;
#X connect 49 0 41 0;
#X connect 50 0 54 0;
#X connect 50 0 58 0;
#X connect 50 0 70 0;
#X connect 52 0 134 0;
#X connect 53 0 61 0;
#X connect 53 1 55 0;
#X connect 54 0 56 0;
#X connect 55 0 51 0;
#X connect 55 0 65 0;
#X connect 56 0 64 1;
#X connect 58 0 69 1;
#X connect 61 0 51 0;
#X connect 61 0 66 0;
#X connect 62 0 1 1;
#X connect 64 0 36 0;
#X connect 65 0 59 0;
#X connect 66 0 60 0;
#X connect 67 0 134 0;
#X connect 68 0 31 0;
#X connect 69 0 105 0;
#X connect 70 0 71 0;
#X connect 71 0 69 0;
#X connect 72 0 28 0;
#X connect 73 0 14 0;
#X connect 74 0 94 1;
#X connect 76 0 90 3;
#X connect 77 0 76 0;
#X connect 78 0 87 0;
#X connect 79 0 39 0;
#X connect 83 0 129 0;
#X connect 84 0 32 0;
#X connect 85 0 82 0;
#X connect 86 0 131 0;
#X connect 87 0 79 1;
#X connect 88 0 90 2;
#X connect 89 0 90 1;
#X connect 90 0 79 0;
#X connect 91 0 89 0;
#X connect 92 0 29 0;
#X connect 94 0 88 0;
#X connect 96 0 109 1;
#X connect 96 0 136 0;
#X connect 97 0 104 0;
#X connect 97 0 107 1;
#X connect 97 0 108 0;
#X connect 97 0 127 0;
#X connect 97 0 128 0;
#X connect 98 0 101 0;
#X connect 99 0 106 0;
#X connect 100 0 95 0;
#X connect 100 1 96 0;
#X connect 100 2 97 0;
#X connect 100 3 99 0;
#X connect 101 0 100 0;
#X connect 103 0 47 0;
#X connect 104 0 103 0;
#X connect 104 1 103 1;
#X connect 105 0 133 3;
#X connect 106 0 107 0;
#X connect 107 0 77 0;
#X connect 108 0 110 1;
#X connect 109 0 24 0;
#X connect 110 0 16 0;
#X connect 111 0 116 1;
#X connect 112 0 116 0;
#X connect 114 0 133 4;
#X connect 115 0 113 0;
#X connect 116 0 115 0;
#X connect 117 0 84 0;
#X connect 118 0 124 0;
#X connect 119 0 124 1;
#X connect 121 0 133 5;
#X connect 123 0 124 3;
#X connect 124 0 130 0;
#X connect 126 0 127 1;
#X connect 126 0 128 1;
#X connect 127 0 119 0;
#X connect 128 0 118 0;
#X connect 129 0 117 0;
#X connect 129 1 117 0;
#X connect 130 0 120 0;
#X connect 131 0 85 0;
#X connect 131 1 85 1;
#X connect 132 0 1 1;
#X connect 133 0 1 0;
#X connect 134 0 135 0;
#X connect 135 0 53 0;
#X connect 135 0 125 0;
#X connect 136 0 62 0;
#X connect 137 0 132 0;
